<svg xmlns="http://www.w3.org/2000/svg" width="1200" height="420" viewBox="0 0 1200 420" role="img" aria-labelledby="title desc">
<title id="title">XXD Panel 105</title><desc id="desc">Poetic minimalist paper collage with generous negative space, refined limited colour and Risograph-inspired texture.</desc>
<rect width="1200" height="420" fill="#f6edda"/><g fill="#20201d" stroke="#20201d" stroke-width="8" stroke-linecap="round" stroke-linejoin="round"><path d="M90 252l28-111 38-42 48 12 35 74-7 67z"/><path d="M234 252l26-78 42-27 46 30 24 75z"/><path d="M707 256l19-123 58-39 67 31 25 131z"/><path d="M78 282c103-19 205 17 310-5s181 13 285-4 224 11 448-5" fill="none"/><path d="M443 112l42-36 44 37-17 91-57 3z" fill="none"/><path d="M480 76v131" fill="none"/><circle cx="969" cy="145" r="58" fill="none"/></g><g fill="#e34c3d"><path d="M386 91l45-25 25 43-42 30z"/></g><g fill="#2c75a0"><path d="M871 213l47-32 42 38-52 36z"/></g><g fill="#efb739"><path d="M1019 87l49 10-11 48-46-15z"/></g><g fill="#4f8a57"><path d="M302 99l24-48 32 55-24 35z"/></g><g fill="#20201d" font-family="Arial, sans-serif"><text x="64" y="360" font-size="44" font-weight="700" letter-spacing="6">XXD PANEL 105</text><text x="748" y="350" font-size="18" letter-spacing="3">MEMORY, EDITED TO ESSENCE</text></g></svg>
